<svg xmlns="http://www.w3.org/2000/svg" width="1000" height="1000" fill="none">
  <circle cx="500" cy="500" r="450" fill="#fff"/>
  <path fill="#2755F8" d="M632.99 260.075c29.12-29.115 76.525-29.115 105.645 0 29.12 29.113 29.12 76.513 0 105.625-16.867 16.868-39.95 24.5-63.387 21.128-1.065-.178-2.308-.178-3.375 0-6.923-.888-14.203 0-21.128 3.195-9.765 4.437-16.69 12.602-20.065 22.012-3.372 9.233-3.195 19.705 1.245 29.115 25.035 54.145 13.493 118.943-28.765 161.193-42.26 42.252-107.067 53.79-161.222 28.76-9.765-4.438-20.242-4.615-29.65-1.068-9.235 3.375-17.047 10.298-21.485 19.885-2.842 6.213-3.907 12.603-3.552 18.995-.178 1.243-.178 2.485 0 3.728 3.907 23.79-3.905 48.11-20.95 65.152-29.12 29.115-76.528 29.115-105.648 0-14.205-14.202-21.84-32.842-21.84-52.902 0-19.883 7.813-38.703 21.84-52.903 16.868-16.865 39.95-24.5 63.388-21.125h1.242c2.488.533 4.973.888 7.635.888 5.505 0 11.01-1.065 16.158-3.553 9.59-4.437 16.335-12.247 19.887-21.302 3.55-9.408 3.55-20.06-1.067-29.823-25.035-54.145-13.493-118.942 28.765-161.195 42.26-42.25 107.067-53.79 161.222-28.757 9.587 4.437 20.242 4.615 29.475 1.242 9.232-3.375 17.222-10.297 21.66-19.885 3.375-7.455 4.262-15.442 3.02-23.077v-.178c-3.905-23.787 3.907-48.107 20.952-65.15Zm-73.865 298.243c32.318-32.31 32.318-84.68 0-116.99-32.314-32.31-84.692-32.31-117.009 0-32.315 32.31-32.315 84.68 0 116.99 32.317 32.307 84.695 32.307 117.009 0ZM500 0c276.1 0 500 223.859 500 499.91C1000 775.963 776.278 1000 500 1000 223.721 1000 0 776.14 0 499.91 0 223.681 223.898 0 500 0Zm266.513 393.573c44.21-44.203 44.21-115.748 0-159.949-44.213-44.204-115.768-44.204-159.98 0-16.335 16.331-26.633 36.569-30.895 57.696-80.077-30.18-172.05-11.007-233.31 50.238-61.257 61.245-80.432 153.205-50.07 233.445-21.307 4.262-41.547 14.56-58.062 31.067-44.21 44.205-44.21 115.748 0 159.95 44.212 44.205 115.77 44.205 159.98 0 16.512-16.51 26.99-37.102 31.072-58.405 24.858 9.23 50.78 13.848 76.528 13.848 57.349 0 113.992-22.193 156.072-64.265 60.9-60.89 80.255-152.318 50.602-232.38 21.13-4.438 41.55-14.735 58.063-31.245Z"/>
</svg>