<svg width="1000" height="1000" viewBox="0 0 1000 1000" fill="none" xmlns="http://www.w3.org/2000/svg">
<circle cx="500" cy="500" r="500" fill="white"/>
<path d="M632.99 260.075C662.11 230.96 709.515 230.96 738.635 260.075C767.755 289.188 767.755 336.588 738.635 365.7C721.768 382.568 698.685 390.2 675.248 386.828C674.183 386.65 672.94 386.65 671.873 386.828C664.95 385.94 657.67 386.828 650.745 390.023C640.98 394.46 634.055 402.625 630.68 412.035C627.308 421.268 627.485 431.74 631.925 441.15C656.96 495.295 645.418 560.093 603.16 602.343C560.9 644.595 496.093 656.133 441.938 631.103C432.173 626.665 421.696 626.488 412.288 630.035C403.053 633.41 395.241 640.333 390.803 649.92C387.961 656.133 386.896 662.523 387.251 668.915C387.073 670.158 387.073 671.4 387.251 672.643C391.158 696.433 383.346 720.753 366.301 737.795C337.181 766.91 289.773 766.91 260.653 737.795C246.448 723.593 238.813 704.953 238.813 684.893C238.813 665.01 246.626 646.19 260.653 631.99C277.521 615.125 300.603 607.49 324.041 610.865C324.396 610.865 324.751 610.865 325.283 610.865C327.771 611.398 330.256 611.753 332.918 611.753C338.423 611.753 343.928 610.688 349.076 608.2C358.666 603.763 365.411 595.953 368.963 586.898C372.513 577.49 372.513 566.838 367.896 557.075C342.861 502.93 354.403 438.133 396.661 395.88C438.921 353.63 503.728 342.09 557.883 367.123C567.47 371.56 578.125 371.738 587.358 368.365C596.59 364.99 604.58 358.068 609.018 348.48C612.393 341.025 613.28 333.038 612.038 325.403V325.225C608.133 301.438 615.945 277.118 632.99 260.075ZM559.125 558.318C591.443 526.008 591.443 473.638 559.125 441.328C526.811 409.018 474.433 409.018 442.116 441.328C409.801 473.638 409.801 526.008 442.116 558.318C474.433 590.625 526.811 590.625 559.125 558.318ZM500 0C776.1 0 1000 223.859 1000 499.91C1000 775.963 776.278 1000 500 1000C223.721 1000 0 776.14 0 499.91C0 223.681 223.898 0 500 0ZM766.513 393.573C810.723 349.37 810.723 277.825 766.513 233.624C722.3 189.42 650.745 189.42 606.533 233.624C590.198 249.955 579.9 270.193 575.638 291.32C495.561 261.14 403.588 280.313 342.328 341.558C281.071 402.803 261.896 494.763 292.258 575.003C270.951 579.265 250.711 589.563 234.196 606.07C189.986 650.275 189.986 721.818 234.196 766.02C278.408 810.225 349.966 810.225 394.176 766.02C410.688 749.51 421.166 728.918 425.248 707.615C450.106 716.845 476.028 721.463 501.776 721.463C559.125 721.463 615.768 699.27 657.848 657.198C718.748 596.308 738.103 504.88 708.45 424.818C729.58 420.38 750 410.083 766.513 393.573Z" fill="#2755F8"/>
</svg>
