<svg width="17" height="16" viewBox="0 0 17 16" fill="none" xmlns="http://www.w3.org/2000/svg">
<g id="Group 22552">
<path id="Vector" d="M10.6278 4.16902C11.0938 3.70318 11.8522 3.70318 12.3182 4.16902C12.7841 4.63482 12.7841 5.39322 12.3182 5.85902C12.0483 6.1289 11.679 6.25102 11.304 6.19706C11.2869 6.19422 11.267 6.19422 11.25 6.19706C11.1392 6.18286 11.0227 6.19706 10.9119 6.24818C10.7557 6.31918 10.6449 6.44982 10.5909 6.60038C10.5369 6.7481 10.5398 6.91566 10.6108 7.06622C11.0114 7.93254 10.8267 8.9693 10.1506 9.6453C9.47441 10.3213 8.43749 10.5059 7.57101 10.1055C7.41477 10.0345 7.24713 10.0316 7.09661 10.0884C6.94885 10.1424 6.82385 10.2531 6.75285 10.4065C6.70737 10.5059 6.69033 10.6082 6.69601 10.7105C6.69317 10.7303 6.69317 10.7502 6.69601 10.7701C6.75853 11.1507 6.63353 11.5399 6.36081 11.8125C5.89489 12.2784 5.13637 12.2784 4.67045 11.8125C4.44317 11.5853 4.32101 11.2871 4.32101 10.9661C4.32101 10.648 4.44601 10.3469 4.67045 10.1197C4.94033 9.84982 5.30965 9.72766 5.68465 9.78166C5.69033 9.78166 5.69601 9.78166 5.70453 9.78166C5.74433 9.79018 5.78409 9.79586 5.82669 9.79586C5.91477 9.79586 6.00285 9.77882 6.08521 9.73902C6.23865 9.66802 6.34657 9.54306 6.40341 9.39818C6.46021 9.24766 6.46021 9.07722 6.38633 8.92102C5.98577 8.0547 6.17045 7.01794 6.84657 6.3419C7.52273 5.6659 8.55965 5.48126 9.42613 5.88178C9.57953 5.95278 9.75001 5.95562 9.89773 5.90166C10.0454 5.84766 10.1733 5.7369 10.2443 5.5835C10.2983 5.46422 10.3125 5.33642 10.2926 5.21426V5.21142C10.2301 4.83082 10.3551 4.4417 10.6278 4.16902ZM9.44601 8.9409C9.96309 8.42394 9.96309 7.58602 9.44601 7.06906C8.92897 6.5521 8.09093 6.5521 7.57385 7.06906C7.05681 7.58602 7.05681 8.42394 7.57385 8.9409C8.09093 9.45782 8.92897 9.45782 9.44601 8.9409ZM8.50001 0.0078125C12.9176 0.0078125 16.5 3.58956 16.5 8.00638C16.5 12.4232 12.9204 16.0078 8.50001 16.0078C4.07954 16.0078 0.5 12.4261 0.5 8.00638C0.5 3.58672 4.08237 0.0078125 8.50001 0.0078125ZM12.7642 6.30498C13.4716 5.59774 13.4716 4.45302 12.7642 3.74579C12.0568 3.03852 10.9119 3.03852 10.2045 3.74579C9.94317 4.0071 9.77841 4.3309 9.71021 4.66894C8.42897 4.18606 6.95741 4.49282 5.97725 5.47274C4.99713 6.45266 4.69033 7.92402 5.17613 9.20786C4.83521 9.27606 4.51137 9.44082 4.24713 9.70494C3.53977 10.4122 3.53977 11.5569 4.24713 12.2641C4.95453 12.9714 6.09945 12.9714 6.80681 12.2641C7.07101 12 7.23865 11.6705 7.30397 11.3297C7.70169 11.4773 8.11645 11.5512 8.52841 11.5512C9.44601 11.5512 10.3523 11.1961 11.0256 10.523C12 9.54874 12.3096 8.0859 11.8352 6.8049C12.1733 6.7339 12.5 6.56914 12.7642 6.30498Z" fill="white"/>
</g>
</svg>
