<svg xmlns="http://www.w3.org/2000/svg" width="1000" height="1000" fill="none">
  <circle cx="500" cy="500" r="450" fill="#fff"/>
  <path fill="#26ED75" fill-rule="evenodd" d="M500 1000c276.143 0 500-223.857 500-500C1000 223.857 776.143 0 500 0 223.857 0 0 223.857 0 500c0 276.143 223.857 500 500 500Zm133.965-368.428c73.986-73.904 73.986-193.728 0-267.633-73.986-73.906-193.944-73.906-267.93 0-73.986 73.905-73.986 193.729 0 267.633 14.492 14.477 14.492 37.946 0 52.422-14.492 14.475-37.988 14.475-52.478 0-102.971-102.857-102.971-269.621 0-372.476 102.968-102.858 269.918-102.858 372.886 0 102.971 102.855 102.971 269.619 0 372.476-14.49 14.475-37.986 14.475-52.478 0-14.492-14.476-14.492-37.945 0-52.422ZM500.01 507.605c20.494 0 37.107 15.784 37.107 35.252v140.641c0 19.469-16.613 35.252-37.107 35.252-20.496 0-37.11-15.783-37.11-35.252V542.857c0-19.468 16.614-35.252 37.11-35.252Zm0-107.814c20.494 0 37.107 16.596 37.107 37.068v.508c0 20.473-16.613 37.069-37.107 37.069-20.496 0-37.11-16.596-37.11-37.069v-.508c0-20.472 16.614-37.068 37.11-37.068Z" clip-rule="evenodd"/>
</svg>