<svg xmlns="http://www.w3.org/2000/svg" width="17" height="16" viewBox="0 0 17 16" fill="none">
  <path fill-rule="evenodd" clip-rule="evenodd" d="M8.5 16.0078C12.9183 16.0078 16.5 12.4261 16.5 8.00781C16.5 3.58953 12.9183 0.0078125 8.5 0.0078125C4.08172 0.0078125 0.5 3.58953 0.5 8.00781C0.5 12.4261 4.08172 16.0078 8.5 16.0078ZM10.6434 10.113C11.8272 8.9305 11.8272 7.01331 10.6434 5.83084C9.45966 4.64834 7.54034 4.64834 6.35656 5.83084C5.17278 7.01331 5.17278 8.9305 6.35656 10.113C6.58844 10.3446 6.58844 10.7201 6.35656 10.9517C6.12469 11.1833 5.74875 11.1833 5.51691 10.9517C3.86937 9.306 3.86937 6.63778 5.51691 4.99209C7.16441 3.34637 9.83559 3.34637 11.4831 4.99209C13.1306 6.63778 13.1306 9.306 11.4831 10.9517C11.2513 11.1833 10.8753 11.1833 10.6434 10.9517C10.4116 10.7201 10.4116 10.3446 10.6434 10.113ZM8.50016 8.1295C8.82806 8.1295 9.09387 8.38203 9.09387 8.69353V10.9438C9.09387 11.2553 8.82806 11.5078 8.50016 11.5078C8.17222 11.5078 7.90641 11.2553 7.90641 10.9438V8.69353C7.90641 8.38203 8.17222 8.1295 8.50016 8.1295ZM8.50016 6.40447C8.82806 6.40447 9.09387 6.67 9.09387 6.99756V7.00569C9.09387 7.33325 8.82806 7.59878 8.50016 7.59878C8.17222 7.59878 7.90641 7.33325 7.90641 7.00569V6.99756C7.90641 6.67 8.17222 6.40447 8.50016 6.40447Z" fill="white"/>
</svg>
