<svg xmlns="http://www.w3.org/2000/svg" width="170" height="32" fill="none">
  <path fill="#fff" d="M20.2557 8.32242c.9318-.93168 2.4488-.93168 3.3806 0 .9319.93159.9319 2.44838 0 3.37998-.5397.5398-1.2784.784-2.0284.6761-.034-.0057-.0738-.0057-.108 0-.2215-.0284-.4544 0-.676.1022-.3125.142-.5341.4033-.6421.7044-.1079.2955-.1023.6306.0398.9317.8011 1.7327.4318 3.8062-.9205 5.1582-1.3523 1.352-3.4261 1.7212-5.1591.9203-.3125-.142-.6477-.1477-.9488-.0342-.2955.108-.5455.3295-.6875.6363-.091.1988-.125.4033-.1137.6079a.4183.4183 0 0 0 0 .1193c.1251.7612-.1249 1.5395-.6704 2.0848-.9318.9317-2.44886.9317-3.3807 0-.45456-.4544-.69888-1.0509-.69888-1.6928 0-.6363.25-1.2385.69888-1.6929.53976-.5397 1.2784-.784 2.0284-.676h.0398c.0796.017.1591.0284.2443.0284.1761 0 .3523-.0341.517-.1137.3069-.142.5227-.3919.6364-.6817.1136-.301.1136-.6419-.0341-.9543-.8012-1.7326-.4318-3.8061.9204-5.1582 1.3524-1.352 3.4262-1.7213 5.1592-.9203.3068.142.6477.1477.9432.0398.2954-.108.5511-.3295.6931-.6363.108-.2386.1364-.4942.0966-.7385v-.0057c-.1249-.76119.1251-1.53943.6705-2.08478ZM17.892 17.8662c1.0342-1.034 1.0342-2.7098 0-3.7437-1.0341-1.0339-2.7101-1.0339-3.7443 0-1.0341 1.0339-1.0341 2.7097 0 3.7437 1.0342 1.0338 2.7102 1.0338 3.7443 0ZM16 0c8.8352 0 16 7.16349 16 15.9971C32 24.8308 24.8409 32 16 32 7.15907 32 0 24.8365 0 15.9971 0 7.15781 7.16474 0 16 0Zm8.5284 12.5943c1.4147-1.4144 1.4147-3.70389 0-5.11834-1.4148-1.41454-3.7045-1.41454-5.1193 0-.5228.52261-.8523 1.17021-.9887 1.84629-2.5625-.96576-5.5056-.35224-7.4659 1.60765-1.96024 1.9598-2.57384 4.9025-1.60224 7.4702-.68184.1364-1.32952.4659-1.858.9941-1.41471 1.4146-1.41471 3.704 0 5.1184 1.4148 1.4146 3.70464 1.4146 5.11934 0 .5284-.5283.8637-1.1872.9943-1.8689.7955.2953 1.625.4431 2.4489.4431 1.8352 0 3.6478-.7102 4.9943-2.0565 1.9488-1.9485 2.5682-4.8741 1.6193-7.4361.6762-.142 1.3296-.4715 1.858-.9999Zm138.4566 9.1615c-1.313 0-2.446-.2727-3.401-.8182-.949-.5511-1.679-1.3295-2.19-2.3352-.511-1.0114-.767-2.2017-.767-3.571 0-1.3466.256-2.5284.767-3.5455.517-1.0227 1.239-1.81815 2.165-2.38634.926-.57386 2.014-.86079 3.264-.86079.807 0 1.568.13068 2.284.39204.722.25569 1.358.65341 1.909 1.19319.557.5398.994 1.2273 1.313 2.0625.318.8295.477 1.8182.477 2.9659v.946h-10.73v-2.0795h7.772c-.005-.5909-.133-1.1165-.383-1.5767-.25-.4659-.6-.8324-1.048-1.0995-.444-.267-.961-.4005-1.552-.4005-.63 0-1.184.1534-1.661.4602-.478.3011-.85.6989-1.117 1.1932-.261.4886-.395 1.0256-.401 1.6108v1.8153c0 .7614.14 1.4148.418 1.9603.279.5397.668.9545 1.168 1.2443.5.2841 1.085.4261 1.755.4261.449 0 .856-.0625 1.219-.1875.364-.1307.679-.321.946-.571.267-.25.469-.5597.605-.929l2.881.3239c-.182.7613-.528 1.4261-1.04 1.9943-.505.5625-1.153 1-1.943 1.3125-.79.3068-1.693.4602-2.71.4602Zm-13.097 0c-1.307 0-2.429-.2869-3.367-.8608-.931-.5738-1.65-1.3665-2.156-2.3778-.5-1.0171-.75-2.1875-.75-3.5114 0-1.3295.256-2.5028.767-3.5199.512-1.0227 1.233-1.81815 2.165-2.38634.938-.57386 2.046-.86079 3.324-.86079 1.062 0 2.003.19602 2.821.58807.824.38636 1.48.93466 1.969 1.64486.488.7046.767 1.5284.835 2.4716h-2.949c-.119-.6307-.403-1.1562-.852-1.5767-.443-.4261-1.037-.6392-1.781-.6392-.631 0-1.185.1705-1.662.5114-.478.3352-.85.8182-1.117 1.4488-.261.6307-.392 1.3864-.392 2.2671 0 .892.131 1.6591.392 2.3011.261.6364.628 1.1279 1.1 1.4744.477.341 1.036.5114 1.679.5114.454 0 .86-.0852 1.218-.2557.364-.1761.668-.4289.912-.7585.245-.3295.412-.7301.503-1.2017h2.949c-.074.9261-.347 1.7472-.818 2.4631-.472.7102-1.114 1.267-1.926 1.6704-.813.3978-1.767.5966-2.864.5966Zm-16.41-7.9261v7.6704h-3.085V8.40922h2.949v2.22448h.153c.301-.733.781-1.31538 1.44-1.7472.665-.43182 1.486-.64773 2.464-.64773.903 0 1.69.19318 2.36.57954.676.38637 1.199.94603 1.568 1.67899.375.7329.56 1.6222.554 2.6676v8.3352h-3.085v-7.8579c0-.875-.227-1.5597-.682-2.054-.448-.4943-1.071-.7415-1.866-.7415-.54 0-1.02.1193-1.44.358-.415.2329-.742.571-.981 1.0142-.232.4432-.349.9801-.349 1.6108Zm-12.259 7.9346c-.83 0-1.577-.1477-2.242-.4431-.659-.3012-1.182-.7444-1.568-1.3296-.381-.5852-.571-1.3068-.571-2.1648 0-.7386.136-1.3494.409-1.8323.273-.483.645-.8694 1.116-1.1591.472-.2898 1.003-.5086 1.594-.6563.597-.1534 1.213-.2642 1.85-.3324.767-.0795 1.389-.1505 1.866-.213.477-.0682.824-.1705 1.04-.3069.221-.142.332-.3608.332-.6562v-.0511c0-.6421-.19-1.1393-.571-1.4915-.38-.3523-.929-.5284-1.645-.5284-.755 0-1.355.1647-1.798.4943-.437.3295-.733.7187-.886 1.1676l-2.881-.4091c.227-.7954.602-1.4602 1.125-1.99431.523-.53978 1.162-.94318 1.918-1.21023.755-.27273 1.591-.40909 2.505-.40909.631 0 1.259.07386 1.884.22159.625.14773 1.196.39205 1.713.73295.517.33523.932.79262 1.244 1.37219.318.5795.478 1.304.478 2.1733v8.7613h-2.966v-1.7983h-.103c-.187.3637-.451.7046-.792 1.0228-.336.3125-.759.5653-1.27.7585-.506.1875-1.1.2812-1.781.2812Zm.801-2.267c.619 0 1.156-.1222 1.611-.3665.454-.25.803-.5795 1.048-.9886.25-.4091.375-.8551.375-1.3381v-1.5426c-.097.0795-.262.1534-.495.2216-.227.0682-.482.1278-.767.179-.284.0511-.565.0966-.843.1363-.279.0398-.52.0739-.725.1023-.46.0625-.872.1648-1.236.3068-.363.1421-.65.3409-.86.5966-.211.25-.316.5739-.316.9716 0 .5682.208.9972.622 1.2869.415.2898.944.4347 1.586.4347Zm-15.268-5.6676v7.6704h-3.085V8.40922h2.948v2.22448h.154c.301-.733.781-1.31538 1.44-1.7472.665-.43182 1.486-.64773 2.463-.64773.904 0 1.691.19318 2.361.57954.676.38637 1.199.94603 1.568 1.67899.375.7329.56 1.6222.554 2.6676v8.3352h-3.085v-7.8579c0-.875-.227-1.5597-.682-2.054-.449-.4943-1.071-.7415-1.866-.7415-.54 0-1.02.1193-1.441.358-.414.2329-.741.571-.98 1.0142-.233.4432-.349.9801-.349 1.6108Zm-11.7612 7.6704V8.40918h2.9915V10.591h.1364c.2386-.75568.6477-1.33807 1.2273-1.74716.5852-.41477 1.253-.62216 2.003-.62216.17 0 .361.00852.571.02557.216.01136.395.03125.537.05966V11.145c-.131-.0455-.338-.0853-.622-.1193-.279-.0398-.549-.0597-.81-.0597-.563 0-1.0682.1222-1.5171.3665-.4432.2386-.7926.571-1.0483.9971-.2557.4262-.3835.9176-.3835 1.4745v7.696h-3.0853Zm-7.591.2557c-1.3125 0-2.446-.2727-3.4005-.8182-.9489-.5511-1.679-1.3295-2.1904-2.3352-.5113-1.0114-.767-2.2017-.767-3.571 0-1.3466.2557-2.5284.767-3.5455.5171-1.0227 1.2386-1.81815 2.1648-2.38634.9261-.57386 2.0142-.86079 3.2642-.86079.8068 0 1.5682.13068 2.2841.39204.7216.25569 1.3579.65341 1.9091 1.19319.5568.5398.9943 1.2273 1.3125 2.0625.3182.8295.4772 1.8182.4772 2.9659v.946H82.4907v-2.0795h7.7728c-.0057-.5909-.1336-1.1165-.3836-1.5767-.25-.4659-.5994-.8324-1.0483-1.0995-.4431-.267-.9602-.4005-1.5511-.4005-.6307 0-1.1847.1534-1.6619.4602-.4773.3011-.8495.6989-1.1165 1.1932-.2614.4886-.3949 1.0256-.4006 1.6108v1.8153c0 .7614.1392 1.4148.4176 1.9603.2785.5397.6677.9545 1.1677 1.2443.5.2841 1.0852.4261 1.7556.4261.4489 0 .8552-.0625 1.2188-.1875.3636-.1307.679-.321.946-.571.2671-.25.4688-.5597.6051-.929l2.8807.3239c-.1818.7613-.5284 1.4261-1.0398 1.9943-.5056.5625-1.1534 1-1.9431 1.3125-.7898.3068-1.6932.4602-2.7103.4602ZM80.7547 8.40918 76.0928 21.5001h-3.4091l-4.662-13.09092h3.2898L74.32 18.1336h.1364l3.017-9.72442h3.2813ZM61.4555 21.7558c-1.2784 0-2.3864-.2812-3.3239-.8437s-1.6648-1.3495-2.1818-2.3608c-.5114-1.0114-.7671-2.1932-.7671-3.5455s.2557-2.5369.7671-3.554c.517-1.017 1.2443-1.80678 2.1818-2.36928.9375-.5625 2.0455-.84375 3.3239-.84375s2.3863.28125 3.3238.84375 1.662 1.35228 2.1733 2.36928c.5171 1.0171.7756 2.2017.7756 3.554 0 1.3523-.2585 2.5341-.7756 3.5455-.5113 1.0113-1.2358 1.7983-2.1733 2.3608-.9375.5625-2.0454.8437-3.3238.8437Zm.017-2.4716c.6932 0 1.2727-.1903 1.7386-.571.466-.3864.8125-.9034 1.0398-1.5511.233-.6478.3495-1.3694.3495-2.1648 0-.8011-.1165-1.5256-.3495-2.1733-.2273-.6534-.5738-1.1733-1.0398-1.5597-.4659-.3863-1.0454-.5795-1.7386-.5795-.7102 0-1.3011.1932-1.7727.5795-.4659.3864-.8154.9063-1.0483 1.5597-.2273.6477-.3409 1.3722-.3409 2.1733 0 .7954.1136 1.517.3409 2.1648.2329.6477.5824 1.1647 1.0483 1.5511.4716.3807 1.0625.571 1.7727.571Zm-14.194 7.3978c-1.108 0-2.0597-.1506-2.8552-.4518-.7954-.2954-1.4346-.6931-1.9176-1.1931-.4829-.5-.8182-1.054-1.0057-1.662l2.7785-.6733c.125.2557.3068.5086.5454.7586.2386.2556.5597.4659.9631.6306.4091.1705.9233.2557 1.5426.2557.875 0 1.5994-.213 2.1733-.6392.5738-.4204.8608-1.1136.8608-2.0795v-2.4801h-.1534c-.1591.3181-.3921.6448-.6989.9801-.3011.3352-.7017.6165-1.2017.8437-.4943.2273-1.1165.3409-1.8665.3409-1.0057 0-1.9176-.2358-2.7358-.7074-.8125-.4772-1.4602-1.1875-1.9432-2.1306-.4772-.9489-.7159-2.1364-.7159-3.5625 0-1.4375.2387-2.6506.7159-3.6392.483-.9944 1.1336-1.7472 1.9518-2.25856.8181-.51705 1.7301-.77557 2.7357-.77557.7671 0 1.3978.13068 1.8921.39204.5.25569.8977.56535 1.1932.92898.2954.35796.5199.69601.6733 1.01421h.1704V8.40922h3.0426V21.7132c0 1.1193-.267 2.0455-.8011 2.7784-.5341.733-1.2642 1.2813-2.1903 1.6449-.9262.3636-1.9773.5455-3.1534.5455Zm.0255-7.7898c.6534 0 1.2102-.1591 1.6705-.4773.4602-.3182.8096-.7756 1.0483-1.3722.2386-.5965.3579-1.3125.3579-2.1477 0-.8238-.1193-1.5454-.3579-2.1648-.233-.6193-.5796-1.0994-1.0398-1.4403-.4545-.3466-1.0142-.5199-1.679-.5199-.6875 0-1.2613.179-1.7216.537-.4602.3579-.8068.8494-1.0397 1.4744-.233.6193-.3495 1.3238-.3495 2.1136 0 .8012.1165 1.5029.3495 2.1051.2386.5966.588 1.0625 1.0483 1.3978.4659.3295 1.0369.4943 1.713.4943Z"/>
</svg>