<svg xmlns="http://www.w3.org/2000/svg" width="30" height="30" fill="none">
  <path fill="#fff" fill-rule="evenodd" d="M15 0c8.2843 0 15 6.71574 15 15 0 8.2843-6.7157 15-15 15-8.28426 0-15-6.7157-15-15C0 6.71574 6.71574 0 15 0Zm3.1918 7.00778c-.4918.49202-.8007 1.09738-.9276 1.73198-2.4036-.9047-5.1605-.32996-6.9959 1.50564-1.83702 1.837-2.4112 4.5971-1.50308 7.0022-.6387.1255-1.24848.4354-1.74333.9302-1.32553 1.3255-1.32553 3.4748 0 4.8003 1.3256 1.3255 3.47471 1.3255 4.80031 0 .4977-.4977.8085-1.1116.9325-1.7543.7446.2778 1.5225.4151 2.2966.4151 1.7196 0 3.4181-.6681 4.6803-1.9303 1.8289-1.8287 2.4066-4.5724 1.5158-6.9699.6393-.1253 1.2496-.4353 1.7448-.9306 1.3256-1.3255 1.3256-3.47473 0-4.80032-1.3256-1.32554-3.4748-1.32554-4.8004 0Zm3.9655.7954c.8741.87402.8741 2.29612 0 3.17012-.5035.5038-1.197.7347-1.9038.634-.0338-.0048-.0667-.0036-.0991.0002-.2089-.0272-.4276.0013-.6327.0964-.2922.1353-.5007.3772-.6017.6579-.0991.2758-.0944.5891.0384.876.7526 1.6257.4067 3.5694-.8607 4.8368-1.2675 1.2673-3.2113 1.6137-4.8375.8606-.2907-.1347-.6087-.1379-.8873-.0346-.2759.1024-.5132.3095-.6466.5977-.0851.1838-.1174.3785-.1039.5673-.0049.0372-.0064.0753 0 .1144.1186.7131-.1156 1.4437-.626 1.9545-.874.8737-2.29608.8737-3.17023 0-.4234-.4236-.6566-.9865-.6566-1.5852 0-.5988.2332-1.1618.6566-1.5852.50342-.5036 1.19731-.7341 1.9394-.6325.07492.0152.15084.0256.22802.0256.16251 0 .32761-.0345.48461-.1072.2852-.132.4905-.3658.5941-.638.1067-.2805.1052-.6019-.0308-.8959-.7525-1.6257-.4066-3.5694.8608-4.8367 1.2675-1.2675 3.2114-1.6136 4.8374-.8606.2896.1342.6064.138.8843.0358.2772-.1021.5156-.3097.6496-.5989.1038-.2242.1288-.46444.0874-.69794-.1184-.71342.1157-1.4441.6262-1.95459.874-.87415 2.2962-.87414 3.1701.00001Zm-8.897 5.43412c-.9697.9698-.9697 2.5421 0 3.5119.9698.9698 2.5422.9698 3.5119 0 .9698-.9698.9698-2.5421 0-3.5119-.9697-.9697-2.5421-.9697-3.5119 0Z" clip-rule="evenodd"/>
</svg>