<svg xmlns="http://www.w3.org/2000/svg" width="17" height="16" viewBox="0 0 17 16" fill="none">
  <path fill-rule="evenodd" clip-rule="evenodd" d="M8.49999 16.0078C12.9183 16.0078 16.5 12.4261 16.5 8.00782C16.5 3.58953 12.9183 0.0078125 8.49999 0.0078125C4.08173 0.0078125 0.5 3.58953 0.5 8.00782C0.5 12.4261 4.08173 16.0078 8.49999 16.0078ZM5.67503 5.49062C5.67503 5.15678 5.40439 4.88614 5.07051 4.88614C4.73667 4.88614 4.46603 5.15678 4.46603 5.49062V10.525C4.46603 10.8589 4.73667 11.1295 5.07051 11.1295C5.40439 11.1295 5.67503 10.8589 5.67503 10.525V5.49062ZM12.534 5.49066C12.534 5.15678 12.2634 4.88614 11.9296 4.88614C11.5957 4.88614 11.325 5.15678 11.325 5.49066V10.525C11.325 10.8589 11.5957 11.1295 11.9296 11.1295C12.2634 11.1295 12.534 10.8589 12.534 10.525V5.49066ZM10.2148 6.83978C10.5486 6.83978 10.8192 7.11042 10.8192 7.44426V10.525C10.8192 10.8589 10.5486 11.1295 10.2148 11.1295C9.88087 11.1295 9.61023 10.8589 9.61023 10.525V7.44426C9.61023 7.11042 9.88087 6.83978 10.2148 6.83978ZM7.38979 7.44426C7.38979 7.11042 7.11911 6.83978 6.78527 6.83978C6.45139 6.83978 6.18075 7.11042 6.18075 7.44426V10.525C6.18075 10.8589 6.45139 11.1295 6.78527 11.1295C7.11911 11.1295 7.38979 10.8589 7.38979 10.525V7.44426ZM8.49991 8.6431C8.83379 8.6431 9.10443 8.91374 9.10443 9.24762V10.525C9.10443 10.8589 8.83379 11.1295 8.49991 11.1295C8.16607 11.1295 7.89543 10.8589 7.89543 10.525V9.24762C7.89543 8.91374 8.16607 8.6431 8.49991 8.6431Z" fill="white"/>
</svg>