<svg xmlns="http://www.w3.org/2000/svg" width="1000" height="1000" fill="none">
  <circle cx="500" cy="500" r="450" fill="#fff"/>
  <path fill="#009EF8" d="M999.5 500c0 275.866-223.634 499.5-499.5 499.5S.5 775.866.5 500 224.134.49988 500 .49988 999.5 224.134 999.5 500ZM323.939 342.675c0-21.141-17.139-38.28-38.282-38.28-21.141 0-38.28 17.139-38.28 38.28v314.648c0 21.143 17.139 38.282 38.28 38.282 21.143 0 38.282-17.139 38.282-38.282V342.675Zm428.688.003c0-21.144-17.139-38.283-38.28-38.283-21.143 0-38.282 17.139-38.282 38.283v314.647c0 21.141 17.139 38.28 38.282 38.28 21.141 0 38.28-17.139 38.28-38.28V342.678Zm-107.175 122.1c0-21.141-17.139-38.28-38.28-38.28-21.143 0-38.282 17.139-38.282 38.28v192.547c0 21.141 17.139 38.28 38.282 38.28 21.141 0 38.28-17.139 38.28-38.28V464.778Zm-214.34 0c0-21.141-17.141-38.28-38.283-38.28-21.143 0-38.282 17.139-38.282 38.28v192.547c0 21.141 17.139 38.28 38.282 38.28 21.142 0 38.283-17.139 38.283-38.28V464.778Zm107.165 112.71c0-21.144-17.139-38.283-38.282-38.283-21.142 0-38.28 17.139-38.28 38.283v79.835c0 21.143 17.138 38.282 38.28 38.282 21.143 0 38.282-17.139 38.282-38.282v-79.835Z"/>
</svg>