<svg width="1005" height="1005" viewBox="0 0 1005 1005" fill="none" xmlns="http://www.w3.org/2000/svg">
<circle cx="375" cy="375" r="375" fill="white"/>
<path d="M474.743 195.057C496.583 173.22 532.136 173.22 553.976 195.057C575.816 216.891 575.816 252.441 553.976 274.275C541.326 286.926 524.014 292.65 506.436 290.121C505.637 289.988 504.705 289.988 503.905 290.121C498.713 289.455 493.253 290.121 488.059 292.517C480.735 295.845 475.542 301.969 473.01 309.027C470.481 315.951 470.614 323.805 473.944 330.863C492.72 371.472 484.063 420.07 452.37 451.757C420.675 483.446 372.07 492.1 331.454 473.327C324.13 469.999 316.272 469.866 309.216 472.526C302.29 475.058 296.43 480.25 293.102 487.44C290.97 492.1 290.172 496.892 290.438 501.686C290.305 502.618 290.305 503.55 290.438 504.482C293.369 522.324 287.509 540.565 274.725 553.346C252.885 575.183 217.33 575.183 195.49 553.346C184.836 542.695 179.11 528.715 179.11 513.67C179.11 498.758 184.969 484.643 195.49 473.993C208.141 461.344 225.452 455.618 243.031 458.149C243.297 458.149 243.563 458.149 243.962 458.149C245.828 458.548 247.692 458.815 249.689 458.815C253.817 458.815 257.946 458.016 261.807 456.15C268.999 452.822 274.058 446.965 276.722 440.173C279.385 433.118 279.385 425.128 275.922 417.806C257.145 377.198 265.802 328.6 297.495 296.91C329.19 265.223 377.796 256.568 418.412 275.342C425.603 278.67 433.594 278.803 440.518 276.274C447.443 273.743 453.435 268.551 456.763 261.36C459.295 255.769 459.96 249.778 459.028 244.052V243.919C456.1 226.078 461.959 207.838 474.743 195.057ZM419.344 418.738C443.582 394.506 443.582 355.228 419.344 330.996C395.108 306.763 355.825 306.763 331.587 330.996C307.35 355.228 307.35 394.506 331.587 418.738C355.825 442.969 395.108 442.969 419.344 418.738ZM375 0C582.075 0 750 167.894 750 374.933C750 581.972 582.208 750 375 750C167.791 750 0 582.105 0 374.933C0 167.761 167.924 0 375 0ZM574.885 295.18C608.042 262.028 608.042 208.369 574.885 175.218C541.725 142.065 488.059 142.065 454.9 175.218C442.648 187.467 434.925 202.645 431.728 218.49C371.67 195.855 302.691 210.235 256.746 256.168C210.803 302.102 196.422 371.072 219.194 431.252C203.213 434.449 188.033 442.172 175.647 454.553C142.489 487.706 142.489 541.363 175.647 574.515C208.806 607.669 262.474 607.669 295.632 574.515C308.016 562.133 315.874 546.688 318.936 530.711C337.579 537.634 357.021 541.097 376.332 541.097C419.344 541.097 461.826 524.453 493.386 492.898C539.061 447.231 553.577 378.66 531.338 318.613C547.185 315.285 562.5 307.562 574.885 295.18Z" fill="#2755F8"/>
<path d="M1000 750C1000 888.071 888.071 1000 750 1000C611.929 1000 500 888.071 500 750C500 611.929 611.929 500 750 500C888.071 500 1000 611.929 1000 750Z" fill="white"/>
<path fill-rule="evenodd" clip-rule="evenodd" d="M750 505C614.69 505 505 614.69 505 750C505 885.31 614.69 995 750 995C885.31 995 995 885.31 995 750C995 614.69 885.31 505 750 505ZM495 750C495 609.167 609.167 495 750 495C890.833 495 1005 609.167 1005 750C1005 890.833 890.833 1005 750 1005C609.167 1005 495 890.833 495 750Z" fill="#2755F8"/>
<g clip-path="url(#clip0_612_1732)">
<path d="M760.417 729.167H833.333L739.583 864.583V770.833H666.667L760.417 635.417V729.167Z" fill="#2755F8"/>
</g>
<defs>
<clipPath id="clip0_612_1732">
<rect width="250" height="250" fill="white" transform="translate(625 625)"/>
</clipPath>
</defs>
</svg>
