<svg width="1005" height="1005" viewBox="0 0 1005 1005" fill="none" xmlns="http://www.w3.org/2000/svg">
<circle cx="375" cy="375" r="350" fill="white"/>
<path fill-rule="evenodd" clip-rule="evenodd" d="M375 750C582.107 750 750 582.107 750 375C750 167.893 582.107 0 375 0C167.893 0 0 167.893 0 375C0 582.107 167.893 750 375 750ZM475.474 473.679C530.963 418.251 530.963 328.383 475.474 272.955C419.984 217.525 330.016 217.525 274.526 272.955C219.037 328.383 219.037 418.251 274.526 473.679C285.396 484.537 285.396 502.138 274.526 512.996C263.657 523.852 246.035 523.852 235.167 512.996C157.939 435.853 157.939 310.78 235.167 233.638C312.394 156.495 437.606 156.495 514.833 233.638C592.061 310.78 592.061 435.853 514.833 512.996C503.965 523.852 486.343 523.852 475.474 512.996C464.604 502.138 464.604 484.537 475.474 473.679ZM375.007 380.704C390.378 380.704 402.838 392.541 402.838 407.143V512.624C402.838 527.225 390.378 539.062 375.007 539.062C359.635 539.062 347.175 527.225 347.175 512.624V407.143C347.175 392.541 359.635 380.704 375.007 380.704ZM375.007 299.843C390.378 299.843 402.838 312.29 402.838 327.645V328.025C402.838 343.38 390.378 355.827 375.007 355.827C359.635 355.827 347.175 343.38 347.175 328.025V327.645C347.175 312.29 359.635 299.843 375.007 299.843Z" fill="#26ED75"/>
<path d="M1000 750C1000 888.071 888.071 1000 750 1000C611.929 1000 500 888.071 500 750C500 611.929 611.929 500 750 500C888.071 500 1000 611.929 1000 750Z" fill="white"/>
<path fill-rule="evenodd" clip-rule="evenodd" d="M750 505C614.69 505 505 614.69 505 750C505 885.31 614.69 995 750 995C885.31 995 995 885.31 995 750C995 614.69 885.31 505 750 505ZM495 750C495 609.167 609.167 495 750 495C890.833 495 1005 609.167 1005 750C1005 890.833 890.833 1005 750 1005C609.167 1005 495 890.833 495 750Z" fill="#26ED75"/>
<g clip-path="url(#clip0_612_1734)">
<path d="M760.417 729.167H833.333L739.583 864.583V770.833H666.667L760.417 635.417V729.167Z" fill="#26ED75"/>
</g>
<defs>
<clipPath id="clip0_612_1734">
<rect width="250" height="250" fill="white" transform="translate(625 625)"/>
</clipPath>
</defs>
</svg>
