<svg width="1005" height="1005" viewBox="0 0 1005 1005" fill="none" xmlns="http://www.w3.org/2000/svg">
<g clip-path="url(#clip0_612_1733)">
<circle cx="375" cy="375" r="350" fill="white"/>
<path d="M749.5 375C749.5 581.831 581.831 749.5 375 749.5C168.17 749.5 0.5 581.831 0.5 375C0.5 168.169 168.17 0.499878 375 0.499878C581.831 0.499878 749.5 168.169 749.5 375ZM243.079 257.006C243.079 241.082 230.169 228.171 214.243 228.171C198.318 228.171 185.408 241.082 185.408 257.006V492.992C185.408 508.919 198.318 521.829 214.243 521.829C230.169 521.829 243.079 508.919 243.079 492.992V257.006ZM564.595 257.008C564.595 241.082 551.685 228.171 535.76 228.171C519.834 228.171 506.923 241.082 506.923 257.008V492.994C506.923 508.919 519.834 521.829 535.76 521.829C551.685 521.829 564.595 508.919 564.595 492.994V257.008ZM484.214 348.583C484.214 332.658 471.304 319.748 455.379 319.748C439.452 319.748 426.542 332.658 426.542 348.583V492.994C426.542 508.919 439.452 521.829 455.379 521.829C471.304 521.829 484.214 508.919 484.214 492.994V348.583ZM323.459 348.583C323.459 332.658 310.547 319.748 294.622 319.748C278.695 319.748 265.785 332.658 265.785 348.583V492.994C265.785 508.919 278.695 521.829 294.622 521.829C310.547 521.829 323.459 508.919 323.459 492.994V348.583ZM403.833 433.116C403.833 417.189 390.923 404.279 374.996 404.279C359.071 404.279 346.161 417.189 346.161 433.116V492.992C346.161 508.919 359.071 521.829 374.996 521.829C390.923 521.829 403.833 508.919 403.833 492.992V433.116Z" fill="#009EF8" stroke="#009EF8"/>
</g>
<path d="M1000 750C1000 888.071 888.071 1000 750 1000C611.929 1000 500 888.071 500 750C500 611.929 611.929 500 750 500C888.071 500 1000 611.929 1000 750Z" fill="white"/>
<path fill-rule="evenodd" clip-rule="evenodd" d="M750 505C614.69 505 505 614.69 505 750C505 885.31 614.69 995 750 995C885.31 995 995 885.31 995 750C995 614.69 885.31 505 750 505ZM495 750C495 609.167 609.167 495 750 495C890.833 495 1005 609.167 1005 750C1005 890.833 890.833 1005 750 1005C609.167 1005 495 890.833 495 750Z" fill="#009EF8"/>
<g clip-path="url(#clip1_612_1733)">
<path d="M760.417 729.167H833.333L739.583 864.583V770.833H666.667L760.417 635.417V729.167Z" fill="#009EF8"/>
</g>
<defs>
<clipPath id="clip0_612_1733">
<rect width="750" height="750" fill="white"/>
</clipPath>
<clipPath id="clip1_612_1733">
<rect width="250" height="250" fill="white" transform="translate(625 625)"/>
</clipPath>
</defs>
</svg>
