<svg width="32" height="32" viewBox="0 0 32 32" fill="none" xmlns="http://www.w3.org/2000/svg">
<g id="Group 52">
<circle id="Ellipse 1" cx="16" cy="16" r="16" fill="white"/>
<path id="Helium/Circle" d="M20.2557 8.32239C21.1875 7.39074 22.7045 7.39074 23.6364 8.32239C24.5682 9.25404 24.5682 10.7708 23.6364 11.7024C23.0966 12.2422 22.3579 12.4864 21.6079 12.3785C21.5739 12.3728 21.5341 12.3728 21.5 12.3785C21.2784 12.3501 21.0455 12.3785 20.8238 12.4807C20.5114 12.6227 20.2898 12.8841 20.1818 13.1852C20.0739 13.4806 20.0795 13.8157 20.2216 14.1168C21.0227 15.8495 20.6534 17.923 19.3011 19.275C17.9488 20.627 15.875 20.9963 14.1421 20.1953C13.8295 20.0533 13.4943 20.0476 13.1932 20.1612C12.8977 20.2691 12.6477 20.4907 12.5057 20.7974C12.4148 20.9963 12.3807 21.2008 12.3921 21.4053C12.3863 21.445 12.3863 21.4848 12.3921 21.5246C12.517 22.2858 12.267 23.0641 11.7216 23.6095C10.7898 24.5411 9.27274 24.5411 8.34091 23.6095C7.88638 23.155 7.64205 22.5585 7.64205 21.9166C7.64205 21.2803 7.89206 20.6781 8.34091 20.2237C8.88068 19.684 9.61934 19.4397 10.3693 19.5477C10.3807 19.5477 10.3921 19.5477 10.4091 19.5477C10.4887 19.5647 10.5682 19.5761 10.6534 19.5761C10.8296 19.5761 11.0057 19.542 11.1704 19.4624C11.4773 19.3204 11.6932 19.0705 11.8068 18.7808C11.9205 18.4797 11.9205 18.1388 11.7727 17.8264C10.9716 16.0937 11.3409 14.0202 12.6932 12.6682C14.0454 11.3162 16.1193 10.9469 17.8523 11.7479C18.1591 11.8899 18.5 11.8956 18.7954 11.7877C19.0909 11.6797 19.3466 11.4582 19.4886 11.1514C19.5966 10.9129 19.625 10.6572 19.5852 10.4129V10.4073C19.4602 9.64602 19.7102 8.86774 20.2557 8.32239ZM17.8921 17.8661C18.9262 16.8322 18.9262 15.1564 17.8921 14.1225C16.858 13.0886 15.1818 13.0886 14.1477 14.1225C13.1136 15.1564 13.1136 16.8322 14.1477 17.8661C15.1818 18.9001 16.858 18.9001 17.8921 17.8661ZM16 0C24.8352 0 32 7.16349 32 15.9972C32 24.8308 24.8409 32 16 32C7.15908 32 0 24.8365 0 15.9972C0 7.15781 7.16475 0 16 0ZM24.5284 12.5943C25.9432 11.1799 25.9432 8.89046 24.5284 7.47597C23.1136 6.06143 20.8238 6.06143 19.4091 7.47597C18.8864 7.99856 18.5568 8.64617 18.4205 9.32223C15.8579 8.35646 12.9148 8.97001 10.9545 10.9299C8.9943 12.8897 8.38066 15.8324 9.35229 18.4001C8.67047 18.5365 8.02272 18.866 7.49431 19.3943C6.07955 20.8088 6.07955 23.0982 7.49431 24.5127C8.90907 25.9272 11.1989 25.9272 12.6136 24.5127C13.142 23.9844 13.4773 23.3254 13.6079 22.6437C14.4034 22.9391 15.2329 23.0868 16.0568 23.0868C17.8921 23.0868 19.7046 22.3767 21.0511 21.0304C23 19.0818 23.6193 16.1562 22.6705 13.5942C23.3466 13.4522 24 13.1227 24.5284 12.5943Z" fill="#2755F8"/>
</g>
</svg>
