<svg width="32" height="32" viewBox="0 0 32 32" fill="none" xmlns="http://www.w3.org/2000/svg">
<g id="Group 54">
<circle id="Ellipse 1" cx="16" cy="16" r="16" fill="white"/>
<path id="Vector" d="M15.9442 0.000722548C16.051 0.000989593 16.1577 0.00125664 16.2677 0.00153177C17.9479 0.0101918 19.5068 0.124728 21.0994 0.701886C21.253 0.756209 21.253 0.756209 21.4097 0.81163C23.4714 1.5607 25.2521 2.62496 26.8362 4.14396C26.9868 4.26711 27.1381 4.38938 27.2903 4.51048C29.3615 6.28575 30.8657 9.20679 31.5531 11.793C31.5863 11.9164 31.6195 12.0398 31.6537 12.167C31.9611 13.4317 32.0067 14.6481 31.9993 15.9442C31.999 16.051 31.9987 16.1577 31.9985 16.2677C31.9898 17.9479 31.8753 19.5068 31.2981 21.0994C31.2619 21.2018 31.2257 21.3042 31.1884 21.4097C30.4393 23.4714 29.375 25.2521 27.856 26.8362C27.7329 26.9868 27.6106 27.1381 27.4895 27.2903C25.7142 29.3615 22.7932 30.8657 20.207 31.5531C20.0836 31.5863 19.9602 31.6195 19.833 31.6537C18.5683 31.9611 17.3519 32.0067 16.0558 31.9993C15.949 31.999 15.8423 31.9987 15.7323 31.9985C14.0521 31.9898 12.4932 31.8753 10.9006 31.2981C10.7982 31.2619 10.6958 31.2257 10.5903 31.1884C8.52858 30.4393 6.74785 29.375 5.16384 27.856C5.01324 27.7329 4.86192 27.6106 4.70967 27.4895C2.63852 25.7142 1.13427 22.7932 0.446918 20.207C0.413722 20.0836 0.380526 19.9602 0.346324 19.833C0.0389406 18.5683 -0.00672185 17.3519 0.000722548 16.0558C0.000989593 15.949 0.00125664 15.8423 0.00153177 15.7323C0.0101918 14.0521 0.124728 12.4932 0.701886 10.9006C0.756209 10.747 0.756209 10.747 0.81163 10.5903C1.5607 8.52858 2.62496 6.74785 4.14396 5.16384C4.26711 5.01324 4.38938 4.86192 4.51048 4.70967C6.28575 2.63852 9.20679 1.13427 11.793 0.446918C11.9781 0.397124 11.9781 0.397124 12.167 0.346324C13.4317 0.0389406 14.6481 -0.00672185 15.9442 0.000722548ZM9.96691 10.1497C8.33702 11.9104 7.63706 14.0607 7.67816 16.4432C7.76563 18.4876 8.71034 20.4182 10.1357 21.8643C10.4859 22.0846 10.6064 22.1209 11.0281 22.1033C11.4792 21.9718 11.655 21.8698 11.9205 21.4818C12.0487 21.0689 12.0487 21.0689 11.9205 20.5894C11.6886 20.257 11.4328 19.9554 11.169 19.6477C10.3009 18.5702 9.95748 17.3162 9.9684 15.9522C9.96912 15.8573 9.96984 15.7623 9.97058 15.6645C10.0047 14.1103 10.6144 12.7207 11.6655 11.5699C12.959 10.353 14.6167 9.81324 16.3675 9.84888C18.2699 10.0015 19.6627 10.873 20.9211 12.2756C21.9914 13.6643 22.1021 15.3344 21.9918 17.0199C21.8109 18.1772 21.2163 19.3275 20.4141 20.1751C20.1131 20.5054 20.0798 20.5876 19.9998 21.0595C20.0931 21.5537 20.1765 21.7092 20.5894 21.9918C20.954 22.1411 20.954 22.1411 21.3543 22.1192C22.7566 21.3231 23.5452 19.7855 24.027 18.2972C24.6286 16.0655 24.3364 13.8634 23.2601 11.8304C22.8924 11.2091 22.4821 10.6649 21.9918 10.1357C21.9099 10.047 21.8281 9.95824 21.7438 9.86681C18.4347 6.62063 13.1958 7.09886 9.96691 10.1497ZM14.9801 13.4503C14.896 13.8071 14.9009 14.1128 14.9801 14.4702C15.223 14.821 15.399 14.9442 15.7928 15.0996C16.2462 15.1104 16.5102 14.9597 16.8924 14.7252C17.0974 14.3152 17.097 13.8937 17.0199 13.4503C16.6948 13.0679 16.4935 12.9589 16 12.8766C15.5065 12.9589 15.3052 13.0679 14.9801 13.4503ZM14.9801 16.8924C14.8855 17.293 14.8938 17.6855 14.8999 18.0955C14.8996 18.2124 14.8993 18.3293 14.899 18.4498C14.8991 18.6967 14.9008 18.9436 14.904 19.1905C14.9084 19.5683 14.9067 19.9457 14.9042 20.3235C14.9051 20.5635 14.9063 20.8036 14.9079 21.0436C14.907 21.2129 14.907 21.2129 14.906 21.3857C14.9154 22.0218 14.9154 22.0218 15.2162 22.5694C15.5753 22.815 15.82 22.8753 16.255 22.8841C16.7303 22.6632 16.7303 22.6632 17.0199 22.2467C17.0344 22.0764 17.0414 21.9053 17.0445 21.7344C17.0475 21.5761 17.0475 21.5761 17.0507 21.4146C17.0563 20.9323 17.0616 20.4501 17.0645 19.9679C17.0666 19.7134 17.0701 19.4589 17.075 19.2045C17.0819 18.8378 17.0847 18.4712 17.0866 18.1045C17.0895 17.9908 17.0924 17.8771 17.0954 17.76C17.0975 17.0971 17.0975 17.0971 16.7209 16.5656C16.0128 16.1824 15.5151 16.3104 14.9801 16.8924Z" fill="#26ED75"/>
</g>
</svg>
