<svg width="32" height="32" viewBox="0 0 32 32" fill="none" xmlns="http://www.w3.org/2000/svg">
<g id="Group">
<ellipse id="Ellipse 1" cx="16" cy="16" rx="16" ry="16" fill="white"/>
<path id="Vector" opacity="0.974" fill-rule="evenodd" clip-rule="evenodd" d="M13.968 0.06763C20.8506 -0.464658 26.1426 2.14512 29.844 7.89696C32.7187 13.334 32.7187 18.771 29.844 24.2081C25.564 30.6076 19.6187 33.0653 12.008 31.5807C5.18963 29.5127 1.20429 24.9674 0.0519654 17.9446C-0.425229 10.8282 2.38411 5.45642 8.47997 1.82923C10.2452 0.987714 12.0745 0.400514 13.968 0.06763ZM8.74131 9.98479C9.58373 9.84792 10.0846 10.1959 10.244 11.0287C10.3311 14.378 10.3311 17.7271 10.244 21.0763C9.99242 22.0392 9.40442 22.3219 8.47997 21.9245C8.32299 21.8067 8.21409 21.6545 8.15331 21.4678C8.06619 17.8576 8.06619 14.2475 8.15331 10.6372C8.28724 10.3519 8.48324 10.1344 8.74131 9.98479ZM22.3307 9.98479C23.0016 9.84467 23.5025 10.0621 23.8333 10.6372C23.9205 14.2475 23.9205 17.8576 23.8333 21.4678C23.2435 22.283 22.5902 22.3264 21.8733 21.5983C21.7862 17.9012 21.7862 14.2039 21.8733 10.5067C22.0531 10.3495 22.2055 10.1755 22.3307 9.98479ZM12.1386 13.8995C12.8777 13.7354 13.3785 13.9964 13.6413 14.6824C13.7285 16.8572 13.7285 19.032 13.6413 21.2068C13.245 22.1538 12.6135 22.3495 11.7466 21.794C11.6564 21.6548 11.5911 21.5025 11.5506 21.3373C11.4635 19.0756 11.4635 16.8137 11.5506 14.5519C11.6846 14.2665 11.8806 14.049 12.1386 13.8995ZM18.9333 13.8995C19.6043 13.7593 20.1051 13.9768 20.436 14.5519C20.5231 16.8137 20.5231 19.0756 20.436 21.3373C20.1061 22.1141 19.5617 22.3099 18.8027 21.9245C18.6002 21.7661 18.4479 21.5704 18.3453 21.3373C18.2582 19.119 18.2582 16.9007 18.3453 14.6824C18.4504 14.3371 18.6464 14.0761 18.9333 13.8995ZM15.6666 17.4227C16.3097 17.363 16.767 17.624 17.0387 18.2056C17.1258 19.2495 17.1258 20.2934 17.0387 21.3373C16.3351 22.3793 15.6382 22.3793 14.948 21.3373C14.8608 20.2934 14.8608 19.2495 14.948 18.2056C15.1257 17.8764 15.3652 17.6154 15.6666 17.4227Z" fill="#009EF8"/>
</g>
</svg>
